<svg xmlns="http://www.w3.org/2000/svg" version="1.1" xmlns:xlink="http://www.w3.org/1999/xlink" xmlns:svgjs="http://svgjs.dev/svgjs" width="1500" height="405" viewBox="0 0 1500 405"><g transform="matrix(1,0,0,1,-0.9090909090909918,0.8290126288395925)"><svg viewBox="0 0 396 107" data-background-color="#1d366f" preserveAspectRatio="xMidYMid meet" height="405" width="1500" xmlns="http://www.w3.org/2000/svg" xmlns:xlink="http://www.w3.org/1999/xlink"><g id="tight-bounds" transform="matrix(1,0,0,1,0.2400000000000091,-0.219023089594657)"><svg viewBox="0 0 395.52 107.43804617918933" height="107.43804617918933" width="395.52"><g><svg viewBox="0 0 696.5933031745058 189.2208320048963" height="107.43804617918933" width="395.52"><g><rect width="7.907656971898066" height="187.47592148740878" x="272.4649735013038" y="0.8724552587437557" fill="#ffffff" opacity="1" stroke-width="0" stroke="transparent" fill-opacity="1" class="rect-qz-0" data-fill-palette-color="primary" rx="1%" id="qz-0" data-palette-color="#ffffff"></rect></g><g transform="matrix(1,0,0,1,301.0733031745057,1.3388132723940203)"><svg viewBox="0 0 395.52 186.54320546010825" height="186.54320546010825" width="395.52"><g id="textblocktransform"><svg viewBox="0 0 395.52 186.54320546010825" height="186.54320546010825" width="395.52" id="textblock"><g><svg viewBox="0 0 395.52 186.54320546010825" height="186.54320546010825" width="395.52"><g transform="matrix(1,0,0,1,0,0)"><svg width="395.52" viewBox="2.2500000000000053 -36.3 213.20000000000007 97.25" height="186.54320546010825" data-palette-color="#ffffff"><svg></svg><svg></svg><g class="wordmark-text-0" data-fill-palette-color="primary" id="text-0"><path d="M17.05-34.3c2.5 0 4.633 0.4 6.4 1.2 1.767 0.8 3.227 1.933 4.38 3.4 1.147 1.467 1.987 3.257 2.52 5.37 0.533 2.12 0.8 4.497 0.8 7.13v0c0 2.6-0.29 4.973-0.87 7.12-0.587 2.153-1.487 3.997-2.7 5.53-1.22 1.533-2.753 2.723-4.6 3.57-1.853 0.853-4.047 1.28-6.58 1.28v0c-2.5 0-4.64-0.377-6.42-1.13-1.787-0.747-3.253-1.847-4.4-3.3-1.153-1.447-1.997-3.203-2.53-5.27-0.533-2.067-0.8-4.433-0.8-7.1v0c0-2.6 0.293-4.993 0.88-7.18 0.58-2.18 1.48-4.063 2.7-5.65 1.213-1.58 2.753-2.803 4.62-3.67 1.867-0.867 4.067-1.3 6.6-1.3zM16.35-29.7c-1.467 0-2.683 0.323-3.65 0.97-0.967 0.653-1.75 1.547-2.35 2.68-0.6 1.133-1.023 2.467-1.27 4-0.253 1.533-0.38 3.2-0.38 5v0c0 1.7 0.117 3.317 0.35 4.85 0.233 1.533 0.66 2.883 1.28 4.05 0.613 1.167 1.463 2.1 2.55 2.8 1.08 0.7 2.487 1.05 4.22 1.05v0c1.433 0 2.643-0.317 3.63-0.95 0.98-0.633 1.77-1.5 2.37-2.6 0.6-1.1 1.027-2.41 1.28-3.93 0.247-1.513 0.37-3.153 0.37-4.92v0c0-1.7-0.117-3.333-0.35-4.9-0.233-1.567-0.657-2.95-1.27-4.15-0.62-1.2-1.47-2.16-2.55-2.88-1.087-0.713-2.497-1.07-4.23-1.07zM47.8-19.7c-0.6 0-1.2 0.15-1.8 0.45-0.6 0.3-1.133 0.707-1.6 1.22-0.467 0.52-0.85 1.147-1.15 1.88-0.3 0.733-0.45 1.55-0.45 2.45v0 13.7h-5.7v-12.6c0-2-0.133-3.677-0.4-5.03-0.267-1.347-0.55-2.437-0.85-3.27v0c-0.367-0.967-0.767-1.75-1.2-2.35v0l4.5-1.8c0.3 0.367 0.617 0.817 0.95 1.35v0c0.267 0.467 0.533 1.017 0.8 1.65 0.267 0.633 0.483 1.383 0.65 2.25v0c0.667-1.933 1.633-3.327 2.9-4.18 1.267-0.847 2.7-1.27 4.3-1.27v0c0.767 0 1.483 0.09 2.15 0.27 0.667 0.187 0.983 0.28 0.95 0.28v0l-1.6 5.55c0.033 0-0.16-0.093-0.58-0.28-0.413-0.18-1.037-0.27-1.87-0.27zM55.1-1.15v-34.1l5.7-1v15.25c0.6-1.367 1.44-2.427 2.52-3.18 1.087-0.747 2.48-1.12 4.18-1.12v0c1.567 0 2.923 0.29 4.07 0.87 1.153 0.587 2.113 1.42 2.88 2.5 0.767 1.087 1.333 2.397 1.7 3.93 0.367 1.533 0.55 3.233 0.55 5.1v0c0 1.9-0.293 3.657-0.88 5.27-0.58 1.62-1.393 3.013-2.44 4.18-1.053 1.167-2.313 2.083-3.78 2.75-1.467 0.667-3.083 1-4.85 1v0c-1 0-2.067-0.073-3.2-0.22-1.133-0.153-2.183-0.313-3.15-0.48v0c-1.1-0.2-2.2-0.45-3.3-0.75zM66.55-21.3c-0.833 0-1.6 0.283-2.3 0.85-0.7 0.567-1.31 1.317-1.83 2.25-0.513 0.933-0.913 1.983-1.2 3.15-0.28 1.167-0.42 2.367-0.42 3.6v0 7.25c0.3 0.067 0.783 0.167 1.45 0.3 0.667 0.133 1.283 0.2 1.85 0.2v0c1.233 0 2.267-0.217 3.1-0.65 0.833-0.433 1.5-1.033 2-1.8 0.5-0.767 0.85-1.683 1.05-2.75 0.2-1.067 0.3-2.233 0.3-3.5v0c0-1.167-0.033-2.283-0.1-3.35-0.067-1.067-0.243-2.017-0.53-2.85-0.28-0.833-0.687-1.493-1.22-1.98-0.533-0.48-1.25-0.72-2.15-0.72zM86.95 0.2c-1.767 0-3.117-0.527-4.05-1.58-0.933-1.047-1.4-2.403-1.4-4.07v0-19.45h5.7v18.95c0 0.767 0.117 1.283 0.35 1.55 0.233 0.267 0.583 0.4 1.05 0.4v0c0.133 0 0.273 0 0.42 0 0.153 0 0.297-0.017 0.43-0.05v0c0.133 0 0.283-0.017 0.45-0.05v0l0.6 3.6c-0.233 0.133-0.533 0.25-0.9 0.35v0c-0.3 0.1-0.677 0.183-1.13 0.25-0.447 0.067-0.953 0.1-1.52 0.1zM84.45-36c1.067 0 1.883 0.317 2.45 0.95 0.567 0.633 0.85 1.45 0.85 2.45v0c0 1-0.293 1.833-0.88 2.5-0.58 0.667-1.437 1-2.57 1v0c-1.067 0-1.893-0.327-2.48-0.98-0.58-0.647-0.87-1.437-0.87-2.37v0c0-1.033 0.29-1.883 0.87-2.55 0.587-0.667 1.463-1 2.63-1zM91.55-20.85v-4.05h4.5l1-5.85 4.7-1.05v6.9h6.15l-0.7 4.05h-5.45v14.8c0 0.867 0.233 1.423 0.7 1.67 0.467 0.253 0.983 0.38 1.55 0.38v0c0.467 0 0.933-0.033 1.4-0.1 0.467-0.067 0.883-0.15 1.25-0.25v0c0.433-0.1 0.85-0.217 1.25-0.35v0l0.95 3.75-0.45 0.15c-0.3 0.133-0.743 0.273-1.33 0.42-0.58 0.153-1.263 0.29-2.05 0.41-0.78 0.113-1.637 0.17-2.57 0.17v0c-0.933 0-1.793-0.1-2.58-0.3-0.78-0.2-1.453-0.523-2.02-0.97-0.567-0.453-1.01-1.03-1.33-1.73-0.313-0.7-0.47-1.567-0.47-2.6v0-15.45zM131.7-23.85v11.8c0 2 0.123 3.673 0.37 5.02 0.253 1.353 0.53 2.447 0.83 3.28v0c0.367 1 0.767 1.783 1.2 2.35v0l-4.45 1.8c-0.433-0.433-0.833-0.95-1.2-1.55v0c-0.3-0.533-0.583-1.177-0.85-1.93-0.267-0.747-0.433-1.637-0.5-2.67v0c-0.567 2-1.477 3.507-2.73 4.52-1.247 1.02-2.937 1.53-5.07 1.53v0c-1.567 0-2.927-0.293-4.08-0.88-1.147-0.58-2.103-1.413-2.87-2.5-0.767-1.08-1.333-2.387-1.7-3.92-0.367-1.533-0.55-3.233-0.55-5.1v0c0-1.9 0.29-3.66 0.87-5.28 0.587-1.613 1.403-3.003 2.45-4.17 1.053-1.167 2.313-2.083 3.78-2.75 1.467-0.667 3.083-1 4.85-1v0c1 0 2.04 0.073 3.12 0.22 1.087 0.153 2.097 0.313 3.03 0.48 0.933 0.167 1.723 0.323 2.37 0.47 0.653 0.153 1.03 0.247 1.13 0.28zM120.25-3.7c0.833 0 1.6-0.283 2.3-0.85 0.7-0.567 1.307-1.31 1.82-2.23 0.52-0.913 0.92-1.963 1.2-3.15 0.287-1.18 0.43-2.387 0.43-3.62v0-7.2c-0.333-0.1-0.833-0.217-1.5-0.35-0.667-0.133-1.267-0.2-1.8-0.2v0c-1.267 0-2.31 0.217-3.13 0.65-0.813 0.433-1.47 1.033-1.97 1.8-0.5 0.767-0.85 1.683-1.05 2.75-0.2 1.067-0.3 2.233-0.3 3.5v0c0 1.167 0.033 2.283 0.1 3.35 0.067 1.067 0.24 2.017 0.52 2.85 0.287 0.833 0.697 1.493 1.23 1.98 0.533 0.48 1.25 0.72 2.15 0.72zM143.7 0.2c-1.9 0-3.3-0.527-4.2-1.58-0.9-1.047-1.35-2.387-1.35-4.02v0-29.85l5.7-1.05v30.35c0 0.767 0.15 1.3 0.45 1.6 0.3 0.3 0.733 0.45 1.3 0.45v0c0.333 0 0.657-0.017 0.97-0.05 0.32-0.033 0.613-0.083 0.88-0.15v0c0.3-0.067 0.567-0.133 0.8-0.2v0l0.7 3.6c-0.433 0.167-0.917 0.317-1.45 0.45v0c-0.467 0.133-1.017 0.243-1.65 0.33-0.633 0.08-1.35 0.12-2.15 0.12z" fill="#ffffff" fill-rule="nonzero" stroke="none" stroke-width="1" stroke-linecap="butt" stroke-linejoin="miter" stroke-miterlimit="10" stroke-dasharray="" stroke-dashoffset="0" font-family="none" font-weight="none" font-size="none" text-anchor="none" style="mix-blend-mode: normal" data-fill-palette-color="primary" opacity="1"></path><path transform="translate(0,50.1)" d="M28.1-13l-5.6 13h-4.2l-5.65-12.85c-0.167-0.367-0.373-0.867-0.62-1.5-0.253-0.633-0.53-1.333-0.83-2.1-0.3-0.767-0.617-1.577-0.95-2.43-0.333-0.847-0.65-1.703-0.95-2.57v0c0 0.867-0.007 1.723-0.02 2.57-0.02 0.853-0.047 1.653-0.08 2.4-0.033 0.753-0.057 1.42-0.07 2-0.02 0.587-0.03 1.047-0.03 1.38v0l-0.5 13.1h-5.6l2-33.95h4.65l8.55 21.2c0.3 0.767 0.643 1.6 1.03 2.5 0.38 0.9 0.737 1.783 1.07 2.65v0c0.333-0.867 0.683-1.743 1.05-2.63 0.367-0.88 0.717-1.72 1.05-2.52v0l8.6-21.2h4.55l2 33.95h-5.55l-0.55-12.95c-0.033-0.833-0.073-2.027-0.12-3.58-0.053-1.547-0.097-3.12-0.13-4.72v0c-0.3 0.833-0.607 1.667-0.92 2.5-0.32 0.833-0.613 1.617-0.88 2.35-0.267 0.733-0.517 1.4-0.75 2-0.233 0.6-0.417 1.067-0.55 1.4zM63.6-23.85v11.8c0 2 0.127 3.673 0.38 5.02 0.247 1.353 0.52 2.447 0.82 3.28v0c0.367 1 0.767 1.783 1.2 2.35v0l-4.45 1.8c-0.433-0.433-0.833-0.95-1.2-1.55v0c-0.3-0.533-0.583-1.177-0.85-1.93-0.267-0.747-0.433-1.637-0.5-2.67v0c-0.567 2-1.473 3.507-2.72 4.52-1.253 1.02-2.947 1.53-5.08 1.53v0c-1.567 0-2.923-0.293-4.07-0.88-1.153-0.58-2.113-1.413-2.88-2.5-0.767-1.08-1.333-2.387-1.7-3.92-0.367-1.533-0.55-3.233-0.55-5.1v0c0-1.9 0.293-3.66 0.88-5.28 0.58-1.613 1.397-3.003 2.45-4.17 1.047-1.167 2.303-2.083 3.77-2.75 1.467-0.667 3.083-1 4.85-1v0c1 0 2.043 0.073 3.13 0.22 1.08 0.153 2.087 0.313 3.02 0.48 0.933 0.167 1.727 0.323 2.38 0.47 0.647 0.153 1.02 0.247 1.12 0.28zM52.15-3.7c0.833 0 1.6-0.283 2.3-0.85 0.7-0.567 1.31-1.31 1.83-2.23 0.513-0.913 0.913-1.963 1.2-3.15 0.28-1.18 0.42-2.387 0.42-3.62v0-7.2c-0.333-0.1-0.833-0.217-1.5-0.35-0.667-0.133-1.267-0.2-1.8-0.2v0c-1.267 0-2.307 0.217-3.12 0.65-0.82 0.433-1.48 1.033-1.98 1.8-0.5 0.767-0.85 1.683-1.05 2.75-0.2 1.067-0.3 2.233-0.3 3.5v0c0 1.167 0.033 2.283 0.1 3.35 0.067 1.067 0.243 2.017 0.53 2.85 0.28 0.833 0.687 1.493 1.22 1.98 0.533 0.48 1.25 0.72 2.15 0.72zM80.45-19.7c-0.6 0-1.2 0.15-1.8 0.45-0.6 0.3-1.133 0.707-1.6 1.22-0.467 0.52-0.85 1.147-1.15 1.88-0.3 0.733-0.45 1.55-0.45 2.45v0 13.7h-5.7v-12.6c0-2-0.133-3.677-0.4-5.03-0.267-1.347-0.55-2.437-0.85-3.27v0c-0.367-0.967-0.767-1.75-1.2-2.35v0l4.5-1.8c0.3 0.367 0.617 0.817 0.95 1.35v0c0.267 0.467 0.533 1.017 0.8 1.65 0.267 0.633 0.483 1.383 0.65 2.25v0c0.667-1.933 1.633-3.327 2.9-4.18 1.267-0.847 2.7-1.27 4.3-1.27v0c0.767 0 1.483 0.09 2.15 0.27 0.667 0.187 0.983 0.28 0.95 0.28v0l-1.6 5.55c0.033 0-0.157-0.093-0.57-0.28-0.42-0.18-1.047-0.27-1.88-0.27zM87.75-35.25l5.7-1v14.25c0.267-0.333 0.61-0.693 1.03-1.08 0.413-0.38 0.937-0.737 1.57-1.07 0.633-0.333 1.367-0.617 2.2-0.85 0.833-0.233 1.8-0.35 2.9-0.35v0c1.033 0 2 0.15 2.9 0.45 0.9 0.3 1.677 0.733 2.33 1.3 0.647 0.567 1.163 1.257 1.55 2.07 0.38 0.82 0.57 1.747 0.57 2.78v0c0 1.5-0.307 2.733-0.92 3.7-0.62 0.967-1.313 1.733-2.08 2.3v0c-0.867 0.667-1.867 1.2-3 1.6v0l7 11.15h-6.45l-7.2-12.45-0.05-0.5c0.267-0.067 0.777-0.217 1.53-0.45 0.747-0.233 1.52-0.567 2.32-1 0.8-0.433 1.51-0.977 2.13-1.63 0.613-0.647 0.92-1.42 0.92-2.32v0c0-0.967-0.283-1.7-0.85-2.2-0.567-0.5-1.317-0.75-2.25-0.75v0c-1.267 0-2.3 0.25-3.1 0.75-0.8 0.5-1.423 1.067-1.87 1.7-0.453 0.633-0.763 1.233-0.93 1.8-0.167 0.567-0.25 0.9-0.25 1v0 16.05h-5.7zM111-11.85c0-2.233 0.31-4.2 0.93-5.9 0.613-1.7 1.463-3.127 2.55-4.28 1.08-1.147 2.353-2.013 3.82-2.6 1.467-0.58 3.05-0.87 4.75-0.87v0c1.5 0 2.777 0.183 3.83 0.55 1.047 0.367 1.903 0.867 2.57 1.5 0.667 0.633 1.16 1.383 1.48 2.25 0.313 0.867 0.47 1.8 0.47 2.8v0c0 1.2-0.333 2.34-1 3.42-0.667 1.087-1.623 2.037-2.87 2.85-1.253 0.82-2.763 1.47-4.53 1.95-1.767 0.487-3.75 0.747-5.95 0.78v0c0.1 0.767 0.26 1.49 0.48 2.17 0.213 0.687 0.53 1.287 0.95 1.8 0.413 0.52 0.953 0.93 1.62 1.23 0.667 0.3 1.5 0.45 2.5 0.45v0c0.733 0 1.517-0.083 2.35-0.25 0.833-0.167 1.6-0.367 2.3-0.6v0c0.833-0.267 1.65-0.567 2.45-0.9v0l1.5 3.55c-0.867 0.433-1.8 0.817-2.8 1.15v0c-0.867 0.3-1.867 0.567-3 0.8-1.133 0.233-2.333 0.35-3.6 0.35v0c-1.933 0-3.583-0.293-4.95-0.88-1.367-0.58-2.483-1.403-3.35-2.47-0.867-1.067-1.5-2.35-1.9-3.85-0.4-1.5-0.6-3.167-0.6-5zM122.6-21.6c-1.1 0-2.007 0.257-2.72 0.77-0.72 0.52-1.297 1.19-1.73 2.01-0.433 0.813-0.74 1.73-0.92 2.75-0.187 1.013-0.297 2.037-0.33 3.07v0c1.6-0.067 2.96-0.277 4.08-0.63 1.113-0.347 2.02-0.78 2.72-1.3 0.7-0.513 1.21-1.07 1.53-1.67 0.313-0.6 0.47-1.2 0.47-1.8v0c0-0.967-0.283-1.743-0.85-2.33-0.567-0.58-1.317-0.87-2.25-0.87zM132.9-20.85v-4.05h4.5l1-5.85 4.7-1.05v6.9h6.15l-0.7 4.05h-5.45v14.8c0 0.867 0.233 1.423 0.7 1.67 0.467 0.253 0.983 0.38 1.55 0.38v0c0.467 0 0.933-0.033 1.4-0.1 0.467-0.067 0.883-0.15 1.25-0.25v0c0.433-0.1 0.85-0.217 1.25-0.35v0l0.95 3.75-0.45 0.15c-0.3 0.133-0.74 0.273-1.32 0.42-0.587 0.153-1.27 0.29-2.05 0.41-0.787 0.113-1.647 0.17-2.58 0.17v0c-0.933 0-1.793-0.1-2.58-0.3-0.78-0.2-1.453-0.523-2.02-0.97-0.567-0.453-1.007-1.03-1.32-1.73-0.32-0.7-0.48-1.567-0.48-2.6v0-15.45zM158.95 0.2c-1.767 0-3.117-0.527-4.05-1.58-0.933-1.047-1.4-2.403-1.4-4.07v0-19.45h5.7v18.95c0 0.767 0.117 1.283 0.35 1.55 0.233 0.267 0.583 0.4 1.05 0.4v0c0.133 0 0.277 0 0.43 0 0.147 0 0.287-0.017 0.42-0.05v0c0.133 0 0.283-0.017 0.45-0.05v0l0.6 3.6c-0.233 0.133-0.533 0.25-0.9 0.35v0c-0.3 0.1-0.673 0.183-1.12 0.25-0.453 0.067-0.963 0.1-1.53 0.1zM156.45-36c1.067 0 1.883 0.317 2.45 0.95 0.567 0.633 0.85 1.45 0.85 2.45v0c0 1-0.29 1.833-0.87 2.5-0.587 0.667-1.447 1-2.58 1v0c-1.067 0-1.89-0.327-2.47-0.98-0.587-0.647-0.88-1.437-0.88-2.37v0c0-1.033 0.293-1.883 0.88-2.55 0.58-0.667 1.453-1 2.62-1zM187.65 0h-5.65v-16.15c0-1.4-0.25-2.527-0.75-3.38-0.5-0.847-1.35-1.27-2.55-1.27v0c-0.767 0-1.507 0.19-2.22 0.57-0.72 0.387-1.363 0.947-1.93 1.68-0.567 0.733-1.023 1.623-1.37 2.67-0.353 1.053-0.53 2.23-0.53 3.53v0 12.35h-5.7v-12.6c0-2-0.133-3.677-0.4-5.03-0.267-1.347-0.55-2.437-0.85-3.27v0c-0.367-0.967-0.767-1.75-1.2-2.35v0l4.5-1.8c0.333 0.367 0.667 0.817 1 1.35v0c0.267 0.467 0.533 1.04 0.8 1.72 0.267 0.687 0.483 1.463 0.65 2.33v0c0.867-2 2.117-3.443 3.75-4.33 1.633-0.88 3.35-1.32 5.15-1.32v0c2.567 0 4.427 0.773 5.58 2.32 1.147 1.553 1.72 3.647 1.72 6.28v0zM196.3 8.75l1.4-4.35c0.5 0.2 1.033 0.41 1.6 0.63 0.567 0.213 1.167 0.42 1.8 0.62 0.633 0.2 1.277 0.367 1.93 0.5 0.647 0.133 1.287 0.2 1.92 0.2v0c1.867 0 3.217-0.56 4.05-1.68 0.833-1.113 1.25-2.553 1.25-4.32v0c0-1.733-0.367-3.483-1.1-5.25v0c-0.567 1.7-1.457 2.99-2.67 3.87-1.22 0.887-2.83 1.33-4.83 1.33v0c-1.567 0-2.923-0.293-4.07-0.88-1.153-0.58-2.113-1.413-2.88-2.5-0.767-1.08-1.333-2.387-1.7-3.92-0.367-1.533-0.55-3.233-0.55-5.1v0c0-1.9 0.293-3.66 0.88-5.28 0.58-1.613 1.397-3.003 2.45-4.17 1.047-1.167 2.303-2.083 3.77-2.75 1.467-0.667 3.083-1 4.85-1v0c0.8 0 1.66 0.05 2.58 0.15 0.913 0.1 1.813 0.223 2.7 0.37 0.88 0.153 1.713 0.313 2.5 0.48 0.78 0.167 1.453 0.317 2.02 0.45v0l-0.25 13.75c-0.033 1 0.027 1.917 0.18 2.75 0.147 0.833 0.32 1.657 0.52 2.47 0.2 0.82 0.383 1.647 0.55 2.48 0.167 0.833 0.25 1.75 0.25 2.75v0c0 3.533-0.9 6.167-2.7 7.9-1.8 1.733-4.233 2.6-7.3 2.6v0c-1 0-2-0.09-3-0.27-1-0.187-1.923-0.397-2.77-0.63-0.853-0.233-1.58-0.467-2.18-0.7-0.6-0.233-1-0.4-1.2-0.5zM202.6-3.7c0.8 0 1.543-0.267 2.23-0.8 0.68-0.533 1.287-1.243 1.82-2.13 0.533-0.88 0.95-1.887 1.25-3.02 0.3-1.133 0.45-2.3 0.45-3.5v0-7.6c-0.333-0.1-0.833-0.217-1.5-0.35-0.667-0.133-1.267-0.2-1.8-0.2v0c-1.267 0-2.307 0.217-3.12 0.65-0.82 0.433-1.48 1.033-1.98 1.8-0.5 0.767-0.85 1.683-1.05 2.75-0.2 1.067-0.3 2.233-0.3 3.5v0c0 1.167 0.033 2.283 0.1 3.35 0.067 1.067 0.243 2.017 0.53 2.85 0.28 0.833 0.687 1.493 1.22 1.98 0.533 0.48 1.25 0.72 2.15 0.72z" fill="#ffffff" fill-rule="nonzero" stroke="none" stroke-width="1" stroke-linecap="butt" stroke-linejoin="miter" stroke-miterlimit="10" stroke-dasharray="" stroke-dashoffset="0" font-family="none" font-weight="none" font-size="none" text-anchor="none" style="mix-blend-mode: normal" data-fill-palette-color="primary" opacity="1"></path></g></svg></g></svg></g></svg></g></svg></g><g><svg viewBox="0 0 251.76430079999997 189.2208320048963" height="189.2208320048963" width="251.76430079999997"><g><svg xmlns="http://www.w3.org/2000/svg" xmlns:xlink="http://www.w3.org/1999/xlink" version="1.1" x="0" y="0" viewBox="7.146114483885301 17.300000000000004 84.75486441442669 63.699999999999996" style="enable-background:new 0 0 100 100;" xml:space="preserve" height="189.2208320048963" width="251.76430079999997" class="icon-icon-0" data-fill-palette-color="accent" id="icon-0"><g fill="#08c076" data-fill-palette-color="accent"><path d="M57.6 63.5c-9.2 5.3-18 9.5-25.6 12.3C37.1 79 43 81 49.5 81c17.6 0 31.9-14.2 31.9-31.9 0-0.6 0-1.2-0.1-1.8C75.1 52.5 66.9 58.2 57.6 63.5z" fill="#08c076" data-fill-palette-color="accent"></path><path d="M91.5 25.1c-1.6-2.8-8.3-2.3-17.7 0.8 6.2-0.2 13.3 0.6 4 8.8-5.3-10.3-15.9-17.4-28.2-17.4-17.6 0-31.9 14.2-31.9 31.9 0 6.6 2.2 12.7 5.6 17.9-12.1 4.9-10.5 0-6.5-8C9.3 65.8 6 70.7 7.5 73.5c3 5.3 24.4-1.2 47.5-14.6C78.4 45.5 94.7 30.4 91.5 25.1z" fill="#08c076" data-fill-palette-color="accent"></path></g></svg></g></svg></g></svg></g><defs></defs></svg><rect width="395.52" height="107.43804617918933" fill="none" stroke="none" visibility="hidden"></rect></g></svg></g></svg>