<svg xmlns="http://www.w3.org/2000/svg" version="1.1" xmlns:xlink="http://www.w3.org/1999/xlink" xmlns:svgjs="http://svgjs.dev/svgjs" width="2000" height="767" viewBox="0 0 2000 767"><g transform="matrix(1,0,0,1,-1.2121212121212466,-1.0684831642091694)"><svg viewBox="0 0 396 152" data-background-color="#ffffff" preserveAspectRatio="xMidYMid meet" height="767" width="2000" xmlns="http://www.w3.org/2000/svg" xmlns:xlink="http://www.w3.org/1999/xlink"><g id="tight-bounds" transform="matrix(1,0,0,1,0.2400000000000091,0.2117463376268489)"><svg viewBox="0 0 395.52 151.5765073247463" height="151.5765073247463" width="395.52"><g><svg viewBox="0 0 524.4844428937499 200.99999999999994" height="151.5765073247463" width="395.52"><g><rect width="5.65979914375" height="200.99999999999994" x="201.66466562499994" y="0" fill="#2257bf" opacity="1" stroke-width="0" stroke="transparent" fill-opacity="1" class="rect-qz-0" data-fill-palette-color="primary" rx="1%" id="qz-0" data-palette-color="#2257bf"></rect></g><g transform="matrix(1,0,0,1,222.14069289374996,0.4999999999999858)"><svg viewBox="0 0 302.34374999999994 199.99999999999997" height="199.99999999999997" width="302.34374999999994"><g id="textblocktransform"><svg viewBox="0 0 302.34374999999994 199.99999999999997" height="199.99999999999997" width="302.34374999999994" id="textblock"><g><svg viewBox="0 0 302.34374999999994 199.99999999999997" height="199.99999999999997" width="302.34374999999994"><g transform="matrix(1,0,0,1,0,0)"><svg width="302.34374999999994" viewBox="2.750000000000002 -38.800000000000004 232.65 150.60000000000002" height="199.99999999999997" data-palette-color="#2257bf"><svg></svg><svg></svg><svg></svg><g class="wordmark-text-0" data-fill-palette-color="primary" id="text-0"><path d="M9.3-17.35v0c0 1.9 0.233 3.623 0.7 5.17 0.467 1.553 1.143 2.873 2.03 3.96 0.88 1.08 1.953 1.92 3.22 2.52 1.267 0.6 2.7 0.9 4.3 0.9v0c1.567 0 2.983-0.3 4.25-0.9 1.267-0.6 2.343-1.44 3.23-2.52 0.88-1.087 1.553-2.407 2.02-3.96 0.467-1.547 0.7-3.27 0.7-5.17v0c0-1.9-0.233-3.627-0.7-5.18-0.467-1.547-1.14-2.863-2.02-3.95-0.887-1.08-1.963-1.92-3.23-2.52-1.267-0.6-2.683-0.9-4.25-0.9v0c-1.6 0-3.033 0.3-4.3 0.9-1.267 0.6-2.34 1.45-3.22 2.55-0.887 1.1-1.563 2.417-2.03 3.95-0.467 1.533-0.7 3.25-0.7 5.15zM36.35-17.35v0c0 2.967-0.443 5.583-1.33 7.85-0.88 2.267-2.077 4.157-3.59 5.67-1.52 1.52-3.297 2.663-5.33 3.43-2.033 0.767-4.2 1.15-6.5 1.15v0c-2.3 0-4.473-0.383-6.52-1.15-2.053-0.767-3.837-1.91-5.35-3.43-1.52-1.513-2.73-3.403-3.63-5.67-0.9-2.267-1.35-4.883-1.35-7.85v0c0-2.967 0.45-5.577 1.35-7.83 0.9-2.247 2.127-4.137 3.68-5.67 1.547-1.533 3.337-2.683 5.37-3.45 2.033-0.767 4.183-1.15 6.45-1.15v0c2.267 0 4.417 0.383 6.45 1.15 2.033 0.767 3.81 1.917 5.33 3.45 1.513 1.533 2.72 3.423 3.62 5.67 0.9 2.253 1.35 4.863 1.35 7.83zM58.9-25.8l-1.05 5.1c-0.5-0.167-1.19-0.343-2.07-0.53-0.887-0.18-1.913-0.27-3.08-0.27v0c-0.667 0-1.373 0.067-2.12 0.2-0.753 0.133-1.28 0.25-1.58 0.35v0 20.95h-6.05v-24.9c1.167-0.433 2.627-0.843 4.38-1.23 1.747-0.38 3.687-0.57 5.82-0.57v0c0.4 0 0.867 0.023 1.4 0.07 0.533 0.053 1.067 0.12 1.6 0.2 0.533 0.087 1.05 0.187 1.55 0.3 0.5 0.12 0.9 0.23 1.2 0.33zM80.45-13.15v0c0-2.567-0.51-4.6-1.53-6.1-1.013-1.5-2.62-2.25-4.82-2.25v0c-1 0-1.94 0.15-2.82 0.45-0.887 0.3-1.597 0.633-2.13 1v0 15.05c0.433 0.1 0.993 0.19 1.68 0.27 0.68 0.087 1.503 0.13 2.47 0.13v0c2.233 0 3.983-0.76 5.25-2.28 1.267-1.513 1.9-3.603 1.9-6.27zM86.65-13.05v0c0 2.1-0.31 3.99-0.93 5.67-0.613 1.687-1.493 3.13-2.64 4.33-1.153 1.2-2.547 2.117-4.18 2.75-1.633 0.633-3.483 0.95-5.55 0.95v0c-2 0-3.907-0.15-5.72-0.45-1.82-0.3-3.33-0.633-4.53-1v0-37l6.05-1v13.55c0.7-0.367 1.557-0.7 2.57-1 1.02-0.3 2.147-0.45 3.38-0.45v0c1.833 0 3.477 0.323 4.93 0.97 1.447 0.653 2.653 1.58 3.62 2.78 0.967 1.2 1.71 2.64 2.23 4.32 0.513 1.687 0.77 3.547 0.77 5.58zM99-26.15v26.15h-6.05v-26.15zM99.65-33.8v0c0 1.133-0.367 2.033-1.1 2.7-0.733 0.667-1.6 1-2.6 1v0c-1.033 0-1.917-0.333-2.65-1-0.733-0.667-1.1-1.567-1.1-2.7v0c0-1.167 0.367-2.083 1.1-2.75 0.733-0.667 1.617-1 2.65-1v0c1 0 1.867 0.333 2.6 1 0.733 0.667 1.1 1.583 1.1 2.75zM106.4-10.4v-22.65l6.05-1v7.9h9.3v5.05h-9.3v10.65c0 2.1 0.333 3.6 1 4.5 0.667 0.9 1.8 1.35 3.4 1.35v0c1.1 0 2.073-0.117 2.92-0.35 0.853-0.233 1.53-0.45 2.03-0.65v0l1 4.8c-0.7 0.3-1.617 0.61-2.75 0.93-1.133 0.313-2.467 0.47-4 0.47v0c-1.867 0-3.423-0.25-4.67-0.75-1.253-0.5-2.247-1.227-2.98-2.18-0.733-0.947-1.25-2.097-1.55-3.45-0.3-1.347-0.45-2.887-0.45-4.62zM136.8-4.25v0c1.867 0 3.283-0.1 4.25-0.3v0-6.7c-0.333-0.1-0.817-0.2-1.45-0.3-0.633-0.1-1.333-0.15-2.1-0.15v0c-0.667 0-1.343 0.05-2.03 0.15-0.68 0.1-1.293 0.283-1.84 0.55-0.553 0.267-0.997 0.64-1.33 1.12-0.333 0.487-0.5 1.097-0.5 1.83v0c0 1.433 0.45 2.423 1.35 2.97 0.9 0.553 2.117 0.83 3.65 0.83zM136.3-26.8v0c2 0 3.683 0.25 5.05 0.75 1.367 0.5 2.46 1.2 3.28 2.1 0.813 0.9 1.397 1.99 1.75 3.27 0.347 1.287 0.52 2.697 0.52 4.23v0 15.85c-0.933 0.2-2.34 0.443-4.22 0.73-1.887 0.28-4.013 0.42-6.38 0.42v0c-1.567 0-3-0.15-4.3-0.45-1.3-0.3-2.407-0.783-3.32-1.45-0.92-0.667-1.637-1.533-2.15-2.6-0.52-1.067-0.78-2.383-0.78-3.95v0c0-1.5 0.293-2.767 0.88-3.8 0.58-1.033 1.37-1.877 2.37-2.53 1-0.647 2.157-1.113 3.47-1.4 1.32-0.28 2.697-0.42 4.13-0.42v0c0.667 0 1.367 0.04 2.1 0.12 0.733 0.087 1.517 0.23 2.35 0.43v0-1c0-0.7-0.083-1.367-0.25-2-0.167-0.633-0.457-1.193-0.87-1.68-0.42-0.48-0.97-0.853-1.65-1.12-0.687-0.267-1.547-0.4-2.58-0.4v0c-1.4 0-2.683 0.1-3.85 0.3-1.167 0.2-2.117 0.433-2.85 0.7v0l-0.75-4.9c0.767-0.267 1.883-0.533 3.35-0.8 1.467-0.267 3.033-0.4 4.7-0.4zM164.25-4.5l-0.85 5c-1.8-0.033-3.293-0.233-4.48-0.6-1.18-0.367-2.12-0.893-2.82-1.58-0.7-0.68-1.19-1.53-1.47-2.55-0.287-1.013-0.43-2.17-0.43-3.47v0-30.1l6.05-1v29.95c0 0.733 0.057 1.35 0.17 1.85 0.12 0.5 0.33 0.923 0.63 1.27 0.3 0.353 0.707 0.62 1.22 0.8 0.52 0.187 1.18 0.33 1.98 0.43z" fill="#2257bf" fill-rule="nonzero" stroke="none" stroke-width="1" stroke-linecap="butt" stroke-linejoin="miter" stroke-miterlimit="10" stroke-dasharray="" stroke-dashoffset="0" font-family="none" font-weight="none" font-size="none" text-anchor="none" style="mix-blend-mode: normal" data-fill-palette-color="primary" opacity="1"></path><path transform="translate(0,51.2)" d="M10.45-29.4v24.2c0.367 0.033 0.85 0.057 1.45 0.07 0.6 0.02 1.417 0.03 2.45 0.03v0c4.233 0 7.393-1.077 9.48-3.23 2.08-2.147 3.12-5.153 3.12-9.02v0c0-3.933-1.017-6.95-3.05-9.05-2.033-2.1-5.183-3.15-9.45-3.15v0c-1.867 0-3.2 0.05-4 0.15zM33.55-17.35v0c0 3-0.467 5.607-1.4 7.82-0.933 2.22-2.257 4.07-3.97 5.55-1.72 1.487-3.787 2.587-6.2 3.3-2.42 0.72-5.097 1.08-8.03 1.08v0c-1.4 0-2.983-0.057-4.75-0.17-1.767-0.12-3.45-0.363-5.05-0.73v0-33.65c1.6-0.367 3.3-0.6 5.1-0.7 1.8-0.1 3.4-0.15 4.8-0.15v0c2.9 0 5.55 0.34 7.95 1.02 2.4 0.687 4.46 1.753 6.18 3.2 1.713 1.453 3.037 3.287 3.97 5.5 0.933 2.22 1.4 4.863 1.4 7.93zM46.25-26.15v26.15h-6.05v-26.15zM46.9-33.8v0c0 1.133-0.367 2.033-1.1 2.7-0.733 0.667-1.6 1-2.6 1v0c-1.033 0-1.917-0.333-2.65-1-0.733-0.667-1.1-1.567-1.1-2.7v0c0-1.167 0.367-2.083 1.1-2.75 0.733-0.667 1.617-1 2.65-1v0c1 0 1.867 0.333 2.6 1 0.733 0.667 1.1 1.583 1.1 2.75zM58.7-13.75v0c0 2.567 0.56 4.44 1.68 5.62 1.113 1.187 2.553 1.78 4.32 1.78v0c0.967 0 1.877-0.133 2.73-0.4 0.847-0.267 1.537-0.583 2.07-0.95v0-13.55c-0.433-0.1-0.967-0.193-1.6-0.28-0.633-0.08-1.433-0.12-2.4-0.12v0c-2.2 0-3.883 0.723-5.05 2.17-1.167 1.453-1.75 3.363-1.75 5.73zM75.55-25.3v22.65c0 4.167-1.057 7.217-3.17 9.15-2.12 1.933-5.363 2.9-9.73 2.9v0c-1.6 0-3.157-0.133-4.67-0.4-1.52-0.267-2.897-0.617-4.13-1.05v0l1.1-5.15c1.033 0.433 2.21 0.783 3.53 1.05 1.313 0.267 2.737 0.4 4.27 0.4v0c2.433 0 4.167-0.5 5.2-1.5 1.033-1 1.55-2.483 1.55-4.45v0-1c-0.6 0.3-1.39 0.6-2.37 0.9-0.987 0.3-2.113 0.45-3.38 0.45v0c-1.667 0-3.19-0.267-4.57-0.8-1.387-0.533-2.57-1.317-3.55-2.35-0.987-1.033-1.753-2.327-2.3-3.88-0.553-1.547-0.83-3.337-0.83-5.37v0c0-1.9 0.293-3.65 0.88-5.25 0.58-1.6 1.43-2.967 2.55-4.1 1.113-1.133 2.47-2.017 4.07-2.65 1.6-0.633 3.417-0.95 5.45-0.95v0c1.967 0 3.833 0.15 5.6 0.45 1.767 0.3 3.267 0.617 4.5 0.95zM89.35-26.15v26.15h-6.05v-26.15zM90-33.8v0c0 1.133-0.367 2.033-1.1 2.7-0.733 0.667-1.6 1-2.6 1v0c-1.033 0-1.917-0.333-2.65-1-0.733-0.667-1.1-1.567-1.1-2.7v0c0-1.167 0.367-2.083 1.1-2.75 0.733-0.667 1.617-1 2.65-1v0c1 0 1.867 0.333 2.6 1 0.733 0.667 1.1 1.583 1.1 2.75zM96.75-10.4v-22.65l6.05-1v7.9h9.3v5.05h-9.3v10.65c0 2.1 0.333 3.6 1 4.5 0.667 0.9 1.8 1.35 3.4 1.35v0c1.1 0 2.077-0.117 2.93-0.35 0.847-0.233 1.52-0.45 2.02-0.65v0l1 4.8c-0.7 0.3-1.617 0.61-2.75 0.93-1.133 0.313-2.467 0.47-4 0.47v0c-1.867 0-3.423-0.25-4.67-0.75-1.253-0.5-2.247-1.227-2.98-2.18-0.733-0.947-1.25-2.097-1.55-3.45-0.3-1.347-0.45-2.887-0.45-4.62zM127.15-4.25v0c1.867 0 3.283-0.1 4.25-0.3v0-6.7c-0.333-0.1-0.817-0.2-1.45-0.3-0.633-0.1-1.333-0.15-2.1-0.15v0c-0.667 0-1.34 0.05-2.02 0.15-0.687 0.1-1.303 0.283-1.85 0.55-0.553 0.267-0.997 0.64-1.33 1.12-0.333 0.487-0.5 1.097-0.5 1.83v0c0 1.433 0.45 2.423 1.35 2.97 0.9 0.553 2.117 0.83 3.65 0.83zM126.65-26.8v0c2 0 3.683 0.25 5.05 0.75 1.367 0.5 2.46 1.2 3.28 2.1 0.813 0.9 1.397 1.99 1.75 3.27 0.347 1.287 0.52 2.697 0.52 4.23v0 15.85c-0.933 0.2-2.34 0.443-4.22 0.73-1.887 0.28-4.013 0.42-6.38 0.42v0c-1.567 0-3-0.15-4.3-0.45-1.3-0.3-2.407-0.783-3.32-1.45-0.92-0.667-1.637-1.533-2.15-2.6-0.52-1.067-0.78-2.383-0.78-3.95v0c0-1.5 0.293-2.767 0.88-3.8 0.58-1.033 1.37-1.877 2.37-2.53 1-0.647 2.16-1.113 3.48-1.4 1.313-0.28 2.687-0.42 4.12-0.42v0c0.667 0 1.367 0.04 2.1 0.12 0.733 0.087 1.517 0.23 2.35 0.43v0-1c0-0.7-0.083-1.367-0.25-2-0.167-0.633-0.457-1.193-0.87-1.68-0.42-0.48-0.97-0.853-1.65-1.12-0.687-0.267-1.547-0.4-2.58-0.4v0c-1.4 0-2.683 0.1-3.85 0.3-1.167 0.2-2.117 0.433-2.85 0.7v0l-0.75-4.9c0.767-0.267 1.883-0.533 3.35-0.8 1.467-0.267 3.033-0.4 4.7-0.4zM154.6-4.5l-0.85 5c-1.8-0.033-3.29-0.233-4.47-0.6-1.187-0.367-2.13-0.893-2.83-1.58-0.7-0.68-1.19-1.53-1.47-2.55-0.287-1.013-0.43-2.17-0.43-3.47v0-30.1l6.05-1v29.95c0 0.733 0.06 1.35 0.18 1.85 0.113 0.5 0.32 0.923 0.62 1.27 0.3 0.353 0.71 0.62 1.23 0.8 0.513 0.187 1.17 0.33 1.97 0.43z" fill="#2257bf" fill-rule="nonzero" stroke="none" stroke-width="1" stroke-linecap="butt" stroke-linejoin="miter" stroke-miterlimit="10" stroke-dasharray="" stroke-dashoffset="0" font-family="none" font-weight="none" font-size="none" text-anchor="none" style="mix-blend-mode: normal" data-fill-palette-color="primary" opacity="1"></path><path transform="translate(0,102.4)" d="M5.85-34.65h5.85c0.733 1.267 1.55 2.817 2.45 4.65 0.9 1.833 1.817 3.757 2.75 5.77 0.933 2.02 1.86 4.073 2.78 6.16 0.913 2.08 1.753 4.003 2.52 5.77v0c0.767-1.767 1.6-3.69 2.5-5.77 0.9-2.087 1.817-4.14 2.75-6.16 0.933-2.013 1.85-3.937 2.75-5.77 0.9-1.833 1.717-3.383 2.45-4.65v0h5.7c0.3 2.533 0.583 5.223 0.85 8.07 0.267 2.853 0.51 5.773 0.73 8.76 0.213 2.98 0.413 5.977 0.6 8.99 0.18 3.02 0.337 5.963 0.47 8.83v0h-6.2c-0.133-4.033-0.29-8.183-0.47-12.45-0.187-4.267-0.463-8.4-0.83-12.4v0c-0.367 0.767-0.8 1.683-1.3 2.75-0.5 1.067-1.033 2.223-1.6 3.47-0.567 1.253-1.14 2.547-1.72 3.88-0.587 1.333-1.153 2.623-1.7 3.87-0.553 1.253-1.063 2.42-1.53 3.5-0.467 1.087-0.867 2.013-1.2 2.78v0h-4.7c-0.333-0.767-0.733-1.7-1.2-2.8-0.467-1.1-0.973-2.277-1.52-3.53-0.553-1.247-1.12-2.537-1.7-3.87-0.587-1.333-1.163-2.617-1.73-3.85-0.567-1.233-1.1-2.393-1.6-3.48-0.5-1.08-0.933-1.987-1.3-2.72v0c-0.367 4-0.64 8.133-0.82 12.4-0.187 4.267-0.347 8.417-0.48 12.45v0h-6.2c0.133-2.867 0.293-5.833 0.48-8.9 0.18-3.067 0.38-6.11 0.6-9.13 0.213-3.013 0.453-5.937 0.72-8.77 0.267-2.833 0.55-5.45 0.85-7.85zM57.25-4.25v0c1.867 0 3.283-0.1 4.25-0.3v0-6.7c-0.333-0.1-0.817-0.2-1.45-0.3-0.633-0.1-1.333-0.15-2.1-0.15v0c-0.667 0-1.34 0.05-2.02 0.15-0.687 0.1-1.303 0.283-1.85 0.55-0.553 0.267-0.997 0.64-1.33 1.12-0.333 0.487-0.5 1.097-0.5 1.83v0c0 1.433 0.45 2.423 1.35 2.97 0.9 0.553 2.117 0.83 3.65 0.83zM56.75-26.8v0c2 0 3.683 0.25 5.05 0.75 1.367 0.5 2.46 1.2 3.28 2.1 0.813 0.9 1.397 1.99 1.75 3.27 0.347 1.287 0.52 2.697 0.52 4.23v0 15.85c-0.933 0.2-2.34 0.443-4.22 0.73-1.887 0.28-4.013 0.42-6.38 0.42v0c-1.567 0-3-0.15-4.3-0.45-1.3-0.3-2.407-0.783-3.32-1.45-0.92-0.667-1.637-1.533-2.15-2.6-0.52-1.067-0.78-2.383-0.78-3.95v0c0-1.5 0.293-2.767 0.88-3.8 0.58-1.033 1.37-1.877 2.37-2.53 1-0.647 2.16-1.113 3.48-1.4 1.313-0.28 2.687-0.42 4.12-0.42v0c0.667 0 1.367 0.04 2.1 0.12 0.733 0.087 1.517 0.23 2.35 0.43v0-1c0-0.7-0.083-1.367-0.25-2-0.167-0.633-0.457-1.193-0.87-1.68-0.42-0.48-0.97-0.853-1.65-1.12-0.687-0.267-1.547-0.4-2.58-0.4v0c-1.4 0-2.683 0.1-3.85 0.3-1.167 0.2-2.117 0.433-2.85 0.7v0l-0.75-4.9c0.767-0.267 1.883-0.533 3.35-0.8 1.467-0.267 3.033-0.4 4.7-0.4zM90.7-25.8l-1.05 5.1c-0.5-0.167-1.19-0.343-2.07-0.53-0.887-0.18-1.913-0.27-3.08-0.27v0c-0.667 0-1.373 0.067-2.12 0.2-0.753 0.133-1.28 0.25-1.58 0.35v0 20.95h-6.05v-24.9c1.167-0.433 2.627-0.843 4.38-1.23 1.747-0.38 3.687-0.57 5.82-0.57v0c0.4 0 0.867 0.023 1.4 0.07 0.533 0.053 1.067 0.12 1.6 0.2 0.533 0.087 1.05 0.187 1.55 0.3 0.5 0.12 0.9 0.23 1.2 0.33zM100.95-38.8v22.85c0.767-0.8 1.583-1.66 2.45-2.58 0.867-0.913 1.717-1.83 2.55-2.75 0.833-0.913 1.627-1.797 2.38-2.65 0.747-0.847 1.387-1.587 1.92-2.22v0h7.15c-1.667 1.867-3.423 3.8-5.27 5.8-1.853 2-3.713 3.95-5.58 5.85v0c1 0.833 2.05 1.84 3.15 3.02 1.1 1.187 2.167 2.447 3.2 3.78 1.033 1.333 2 2.667 2.9 4 0.9 1.333 1.65 2.567 2.25 3.7v0h-7c-0.6-1.033-1.29-2.117-2.07-3.25-0.787-1.133-1.63-2.233-2.53-3.3-0.9-1.067-1.817-2.077-2.75-3.03-0.933-0.947-1.85-1.753-2.75-2.42v0 12h-6.05v-37.8zM119.85-12.95v0c0-2.3 0.343-4.317 1.03-6.05 0.68-1.733 1.587-3.177 2.72-4.33 1.133-1.147 2.433-2.013 3.9-2.6 1.467-0.58 2.967-0.87 4.5-0.87v0c3.6 0 6.41 1.117 8.43 3.35 2.013 2.233 3.02 5.567 3.02 10v0c0 0.333-0.007 0.707-0.02 1.12-0.02 0.42-0.047 0.797-0.08 1.13v0h-17.25c0.167 2.1 0.907 3.723 2.22 4.87 1.32 1.153 3.23 1.73 5.73 1.73v0c1.467 0 2.807-0.133 4.02-0.4 1.22-0.267 2.18-0.55 2.88-0.85v0l0.8 4.95c-0.333 0.167-0.79 0.34-1.37 0.52-0.587 0.187-1.253 0.357-2 0.51-0.753 0.147-1.563 0.27-2.43 0.37-0.867 0.1-1.75 0.15-2.65 0.15v0c-2.3 0-4.3-0.343-6-1.03-1.7-0.68-3.1-1.63-4.2-2.85-1.1-1.213-1.917-2.647-2.45-4.3-0.533-1.647-0.8-3.453-0.8-5.42zM126.15-15.65h11.25c0-0.833-0.117-1.627-0.35-2.38-0.233-0.747-0.573-1.397-1.02-1.95-0.453-0.547-1.003-0.98-1.65-1.3-0.653-0.313-1.43-0.47-2.33-0.47v0c-0.933 0-1.75 0.173-2.45 0.52-0.7 0.353-1.29 0.813-1.77 1.38-0.487 0.567-0.863 1.217-1.13 1.95-0.267 0.733-0.45 1.483-0.55 2.25zM149.55-10.4v-22.65l6.05-1v7.9h9.3v5.05h-9.3v10.65c0 2.1 0.333 3.6 1 4.5 0.667 0.9 1.8 1.35 3.4 1.35v0c1.1 0 2.077-0.117 2.93-0.35 0.847-0.233 1.52-0.45 2.02-0.65v0l1 4.8c-0.7 0.3-1.617 0.61-2.75 0.93-1.133 0.313-2.467 0.47-4 0.47v0c-1.867 0-3.423-0.25-4.67-0.75-1.253-0.5-2.247-1.227-2.98-2.18-0.733-0.947-1.25-2.097-1.55-3.45-0.3-1.347-0.45-2.887-0.45-4.62zM176.85-26.15v26.15h-6.05v-26.15zM177.5-33.8v0c0 1.133-0.367 2.033-1.1 2.7-0.733 0.667-1.6 1-2.6 1v0c-1.033 0-1.917-0.333-2.65-1-0.733-0.667-1.1-1.567-1.1-2.7v0c0-1.167 0.367-2.083 1.1-2.75 0.733-0.667 1.617-1 2.65-1v0c1 0 1.867 0.333 2.6 1 0.733 0.667 1.1 1.583 1.1 2.75zM184.55 0v-25.3c1.167-0.333 2.683-0.65 4.55-0.95 1.867-0.3 3.933-0.45 6.2-0.45v0c2.133 0 3.917 0.29 5.35 0.87 1.433 0.587 2.577 1.403 3.43 2.45 0.847 1.053 1.447 2.32 1.8 3.8 0.347 1.487 0.52 3.113 0.52 4.88v0 14.7h-6.05v-13.75c0-1.4-0.09-2.59-0.27-3.57-0.187-0.987-0.487-1.79-0.9-2.41-0.42-0.613-0.987-1.063-1.7-1.35-0.72-0.28-1.597-0.42-2.63-0.42v0c-0.767 0-1.567 0.05-2.4 0.15-0.833 0.1-1.45 0.183-1.85 0.25v0 21.1zM218.55-13.75v0c0 2.567 0.56 4.44 1.68 5.62 1.113 1.187 2.553 1.78 4.32 1.78v0c0.967 0 1.877-0.133 2.73-0.4 0.847-0.267 1.537-0.583 2.07-0.95v0-13.55c-0.433-0.1-0.967-0.193-1.6-0.28-0.633-0.08-1.433-0.12-2.4-0.12v0c-2.2 0-3.883 0.723-5.05 2.17-1.167 1.453-1.75 3.363-1.75 5.73zM235.4-25.3v22.65c0 4.167-1.057 7.217-3.17 9.15-2.12 1.933-5.363 2.9-9.73 2.9v0c-1.6 0-3.157-0.133-4.67-0.4-1.52-0.267-2.897-0.617-4.13-1.05v0l1.1-5.15c1.033 0.433 2.21 0.783 3.53 1.05 1.313 0.267 2.737 0.4 4.27 0.4v0c2.433 0 4.167-0.5 5.2-1.5 1.033-1 1.55-2.483 1.55-4.45v0-1c-0.6 0.3-1.39 0.6-2.37 0.9-0.987 0.3-2.113 0.45-3.38 0.45v0c-1.667 0-3.19-0.267-4.57-0.8-1.387-0.533-2.57-1.317-3.55-2.35-0.987-1.033-1.753-2.327-2.3-3.88-0.553-1.547-0.83-3.337-0.83-5.37v0c0-1.9 0.293-3.65 0.88-5.25 0.58-1.6 1.43-2.967 2.55-4.1 1.113-1.133 2.47-2.017 4.07-2.65 1.6-0.633 3.417-0.95 5.45-0.95v0c1.967 0 3.833 0.15 5.6 0.45 1.767 0.3 3.267 0.617 4.5 0.95z" fill="#2257bf" fill-rule="nonzero" stroke="none" stroke-width="1" stroke-linecap="butt" stroke-linejoin="miter" stroke-miterlimit="10" stroke-dasharray="" stroke-dashoffset="0" font-family="none" font-weight="none" font-size="none" text-anchor="none" style="mix-blend-mode: normal" data-fill-palette-color="primary" opacity="1"></path></g></svg></g></svg></g></svg></g></svg></g><g transform="matrix(1,0,0,1,0,30.284292907652627)"><svg viewBox="0 0 186.84843749999993 140.4314141846947" height="140.4314141846947" width="186.84843749999993"><g><svg xmlns="http://www.w3.org/2000/svg" xmlns:xlink="http://www.w3.org/1999/xlink" version="1.1" x="0" y="0" viewBox="7.146114483885301 17.300000000000004 84.75486441442669 63.699999999999996" style="enable-background:new 0 0 100 100;" xml:space="preserve" height="140.4314141846947" width="186.84843749999993" class="icon-icon-0" data-fill-palette-color="accent" id="icon-0"><g fill="#2257bf" data-fill-palette-color="accent"><path d="M57.6 63.5c-9.2 5.3-18 9.5-25.6 12.3C37.1 79 43 81 49.5 81c17.6 0 31.9-14.2 31.9-31.9 0-0.6 0-1.2-0.1-1.8C75.1 52.5 66.9 58.2 57.6 63.5z" fill="#2257bf" data-fill-palette-color="accent"></path><path d="M91.5 25.1c-1.6-2.8-8.3-2.3-17.7 0.8 6.2-0.2 13.3 0.6 4 8.8-5.3-10.3-15.9-17.4-28.2-17.4-17.6 0-31.9 14.2-31.9 31.9 0 6.6 2.2 12.7 5.6 17.9-12.1 4.9-10.5 0-6.5-8C9.3 65.8 6 70.7 7.5 73.5c3 5.3 24.4-1.2 47.5-14.6C78.4 45.5 94.7 30.4 91.5 25.1z" fill="#2257bf" data-fill-palette-color="accent"></path></g></svg></g></svg></g></svg></g><defs></defs></svg><rect width="395.52" height="151.5765073247463" fill="none" stroke="none" visibility="hidden"></rect></g></svg></g></svg>